# xmcd
#
# Track frame offsets:
#	150
#	21587
#	41892
#	56977
#	77500
#	99380
#	121240
#	146592
#	164190
#	197670
#	225930
#	253930
#	277672
#	303687
#
# Disc length: 4378 seconds
#
# Revision: 0
# Processed by: cddbd v1.4PL0 Copyright (c) Steve Scherf et al.
# Submitted via: dBpowerAMP V4.0
#
DISCID=c711180e
DTITLE=Mick Martin and Blues Rockers - Winning Hand
DYEAR=1900
DGENRE=Blues
TTITLE0=I Bought it for You
TTITLE1=Everybody gets the Blues
TTITLE2=Don't Panic
TTITLE3=In the Dark of Night
TTITLE4=Wonderful World
TTITLE5=Burn the House Down
TTITLE6=Life on the Road
TTITLE7=You Ain't Foolin' Me
TTITLE8=Empty Place
TTITLE9=Shining Star
TTITLE10=Mastercharge
TTITLE11=Notch of My Gun
TTITLE12=Mustang Sally
TTITLE13=House of the Rising Sun
EXTD=
EXTT0=
EXTT1=
EXTT2=
EXTT3=
EXTT4=
EXTT5=
EXTT6=
EXTT7=
EXTT8=
EXTT9=
EXTT10=
EXTT11=
EXTT12=
EXTT13=
PLAYORDER=
